<?xml version="1.0" standalone="no"?>
<!DOCTYPE svg PUBLIC "-//W3C//DTD SVG 20010904//EN"
 "http://www.w3.org/TR/2001/REC-SVG-20010904/DTD/svg10.dtd">
<svg version="1.0" xmlns="http://www.w3.org/2000/svg"
 width="520.000000pt" height="520.000000pt" viewBox="0 0 520.000000 520.000000"
 preserveAspectRatio="xMidYMid meet">
<metadata>
Created by potrace 1.14, written by Peter Selinger 2001-2017
</metadata>
<g transform="translate(0.000000,520.000000) scale(0.100000,-0.100000)"
fill="#000000" stroke="none">
<path d="M4090 4726 c0 -2 8 -10 18 -17 15 -13 16 -12 3 4 -13 16 -21 21 -21
13z"/>
<path d="M4194 4722 c6 -10 1 -12 -22 -9 -19 3 -35 0 -42 -8 -6 -8 -19 -11
-27 -8 -12 5 -14 2 -9 -8 4 -8 0 -5 -8 5 -14 17 -16 18 -16 3 0 -14 -4 -15
-26 -7 -17 7 -23 7 -19 0 4 -7 -3 -9 -19 -6 -15 3 -24 1 -21 -5 4 -5 10 -7 15
-4 5 3 11 1 15 -4 5 -9 -32 -7 -62 4 -7 2 -10 -2 -7 -10 6 -14 -12 -15 -33 -2
-9 6 -11 3 -7 -8 5 -11 2 -14 -12 -8 -13 5 -15 3 -9 -8 5 -8 -2 -5 -15 6 l-23
20 11 -21 c9 -16 8 -21 -3 -21 -8 0 -12 4 -9 9 3 4 -2 5 -10 2 -9 -3 -13 -11
-9 -18 4 -6 0 -6 -9 2 -13 10 -18 10 -24 1 -5 -8 -3 -9 6 -4 9 5 11 4 6 -3 -5
-9 -13 -9 -29 0 -20 10 -21 10 -8 -6 12 -14 12 -16 -4 -10 -14 6 -16 4 -10 -6
5 -8 4 -11 -3 -6 -5 3 -13 0 -16 -6 -3 -7 -3 -2 0 12 l5 25 -15 -25 c-9 -14
-15 -19 -16 -12 0 6 -4 12 -10 12 -5 0 -7 -7 -3 -16 5 -14 3 -15 -18 -4 -23
13 -23 12 -9 -5 8 -10 10 -16 3 -12 -6 4 -15 2 -18 -3 -5 -8 -14 -5 -28 7 -17
14 -19 14 -9 1 15 -19 6 -27 -32 -30 -18 -2 -22 -6 -15 -14 8 -9 5 -11 -12 -7
-13 4 -20 2 -16 -4 3 -5 0 -10 -8 -10 -8 0 -12 3 -10 7 2 4 -2 7 -9 7 -8 0
-12 -6 -9 -13 3 -9 -2 -12 -15 -9 -27 5 -65 -23 -57 -42 5 -14 3 -14 -12 -2
-15 12 -16 12 -10 -5 6 -16 5 -17 -8 -6 -15 12 -20 4 -16 -22 0 -4 -6 -5 -14
-2 -8 4 -15 1 -15 -5 0 -6 -7 -11 -15 -11 -8 0 -23 -9 -32 -19 -9 -11 -21 -17
-27 -14 -6 4 -5 0 2 -9 11 -13 10 -16 -5 -14 -12 1 -17 -5 -16 -18 1 -12 -2
-15 -9 -8 -8 8 -15 7 -24 -3 -17 -17 -18 -29 -1 -19 6 4 -1 -5 -16 -19 -15
-15 -33 -27 -39 -27 -6 0 -8 -8 -6 -18 3 -11 0 -19 -7 -19 -8 0 -11 7 -8 16 4
10 0 9 -10 -4 -11 -15 -12 -22 -4 -27 11 -7 3 -12 -14 -10 -4 1 -15 -9 -25
-21 -12 -14 -13 -17 -3 -9 13 9 16 9 16 -2 0 -9 -9 -13 -24 -11 -19 2 -21 0
-12 -11 9 -11 8 -14 0 -14 -8 0 -10 -8 -6 -22 4 -16 3 -19 -3 -9 -11 15 -27
-2 -17 -18 3 -6 -4 -8 -16 -6 -17 4 -19 2 -9 -10 10 -11 10 -15 1 -15 -7 0 -9
-5 -5 -12 5 -8 2 -9 -12 -4 -10 4 -15 4 -11 0 4 -4 2 -13 -4 -20 -7 -8 -6 -14
2 -20 7 -4 9 -3 5 4 -3 6 -2 13 3 16 5 4 8 -2 7 -11 -2 -10 -7 -18 -12 -17 -5
0 -15 -6 -22 -13 -10 -10 -11 -17 -3 -27 8 -10 5 -19 -14 -39 -19 -18 -22 -27
-14 -33 7 -4 9 -3 6 3 -3 5 1 10 10 10 13 0 12 -4 -5 -18 -24 -18 -30 -35 -9
-22 6 4 4 -6 -7 -21 -10 -16 -14 -26 -8 -22 6 3 9 0 7 -6 -9 -38 -18 -57 -24
-53 -4 2 -8 -2 -8 -10 0 -8 5 -11 11 -8 6 4 5 0 -1 -9 -7 -8 -10 -17 -8 -20
14 -13 13 -49 -1 -55 -16 -6 -15 -43 1 -55 6 -4 1 -8 -9 -8 -18 0 -18 -1 -3
-12 13 -10 14 -17 6 -28 -9 -13 -10 -12 -5 3 3 9 2 17 -3 17 -5 0 -11 -11 -13
-24 -4 -18 -1 -23 10 -19 11 5 10 -1 -4 -23 -17 -26 -17 -27 -1 -15 20 16 20
18 3 -41 -13 -42 -13 -46 1 -41 13 5 13 2 -2 -21 -17 -25 -17 -26 0 -20 16 7
16 5 -1 -22 -17 -26 -17 -27 -1 -15 10 8 17 9 17 3 0 -6 -4 -14 -10 -17 -13
-8 -7 -45 11 -56 9 -6 10 -9 2 -9 -7 0 -10 -7 -7 -17 5 -15 4 -16 -5 -3 -9 13
-11 13 -11 -2 0 -10 4 -18 9 -18 5 0 11 -9 14 -19 3 -14 1 -18 -9 -14 -8 3
-11 10 -7 16 3 6 1 7 -6 3 -9 -6 -9 -11 0 -22 6 -8 8 -14 3 -14 -5 0 0 -7 10
-15 11 -8 15 -15 8 -15 -6 0 -9 -8 -6 -17 5 -15 4 -15 -4 -3 -6 8 -8 18 -5 24
3 5 1 6 -5 3 -11 -8 -5 -47 8 -47 12 0 6 -25 -8 -43 -10 -12 -10 -17 -1 -23 7
-4 9 -3 6 3 -3 5 0 10 8 10 11 0 12 -4 4 -14 -9 -10 -8 -18 2 -30 12 -16 11
-16 -8 0 -16 14 -23 15 -29 6 -4 -8 -3 -10 4 -5 8 5 12 -2 13 -21 0 -15 2 -38
3 -50 1 -12 -1 -20 -5 -17 -4 2 -9 -1 -11 -8 -3 -7 -7 -2 -10 10 -4 12 -2 20
2 17 5 -3 11 -1 14 4 7 11 -13 9 -33 -3 -10 -6 -12 -5 -7 2 4 7 2 12 -4 12 -6
0 -8 5 -5 10 3 6 0 10 -7 10 -10 0 -10 2 -1 8 8 5 2 12 -18 21 -17 7 -28 16
-25 19 3 2 12 0 19 -6 10 -9 14 -8 14 3 0 7 -3 14 -6 13 -22 -2 -31 4 -25 15
6 9 4 9 -7 1 -8 -7 -27 -10 -42 -8 -23 2 -26 0 -17 -11 8 -10 8 -15 -1 -21 -7
-4 -9 -3 -6 3 3 5 0 10 -8 10 -19 0 -8 -16 19 -27 17 -7 17 -9 4 -9 -10 -1
-18 -6 -18 -12 0 -5 4 -8 9 -4 5 3 12 1 16 -5 3 -5 1 -10 -5 -10 -6 0 -9 -4
-6 -9 3 -5 -1 -11 -9 -14 -10 -4 -12 -1 -8 10 4 10 2 14 -4 10 -6 -4 -18 0
-27 8 -8 9 -18 15 -21 15 -3 -1 -9 0 -13 3 -4 2 -1 2 6 1 6 -2 12 1 12 6 0 6
-9 10 -19 10 -10 0 -21 7 -25 15 -3 8 -11 12 -19 9 -8 -3 -20 3 -28 13 -13 17
-13 17 6 3 19 -14 19 -14 6 3 -10 13 -17 15 -27 6 -8 -6 -15 -9 -15 -5 -2 10
-6 25 -9 34 -1 4 -2 11 -1 15 1 5 -3 6 -9 2 -6 -3 -8 -10 -6 -14 3 -4 -1 -8
-9 -8 -11 0 -12 5 -3 21 6 12 7 18 3 14 -4 -4 -17 -2 -28 3 -15 8 -22 8 -28
-2 -6 -10 -9 -10 -9 -2 0 7 8 17 18 23 13 8 13 10 2 9 -30 -3 -41 1 -34 13 4
6 3 8 -4 5 -13 -9 -44 2 -37 13 3 5 1 11 -5 15 -5 3 -10 -2 -10 -12 0 -15 -2
-15 -9 -3 -6 8 -7 18 -5 22 3 4 -3 5 -12 1 -10 -3 -15 -2 -12 3 3 5 -5 17 -17
27 -17 12 -26 14 -31 6 -4 -8 -12 -3 -21 12 -11 19 -13 20 -9 4 6 -19 5 -18
-13 2 -10 12 -21 19 -25 16 -3 -4 -6 -1 -6 7 0 10 -3 10 -14 1 -10 -8 -16 -9
-21 -1 -3 6 -11 8 -16 5 -13 -9 -11 9 4 25 6 7 -1 5 -18 -5 -16 -10 -27 -14
-23 -10 7 8 -2 18 -37 45 -19 14 -19 14 -6 -2 17 -23 3 -23 -21 -1 -17 15 -20
15 -28 3 -8 -12 -10 -12 -10 -1 0 8 -7 11 -19 8 -15 -3 -19 0 -16 14 3 12 -1
16 -11 12 -7 -3 -12 -9 -9 -13 3 -5 0 -12 -6 -16 -7 -4 -9 -3 -6 3 8 12 -30
49 -40 40 -3 -4 -1 -7 5 -7 7 0 12 -8 12 -17 0 -14 -2 -15 -9 -4 -5 7 -14 10
-20 7 -6 -4 -10 -2 -9 5 2 6 -3 14 -11 17 -8 3 -11 0 -7 -6 7 -12 -22 -9 -51
6 -10 5 -24 7 -32 4 -8 -2 -11 0 -8 5 7 12 -50 10 -60 -2 -5 -4 -3 -5 3 -2 6
3 11 0 11 -8 0 -11 -4 -12 -13 -4 -8 7 -14 6 -18 -3 -3 -7 -3 -2 0 12 5 20 4
23 -7 13 -17 -17 -32 -17 -23 0 6 9 4 9 -7 0 -7 -7 -21 -13 -30 -13 -10 0 -19
-3 -22 -7 -2 -5 -2 -2 -1 5 2 6 -1 12 -6 12 -6 0 -10 -4 -10 -10 0 -5 -7 -6
-17 -3 -12 5 -14 3 -8 -7 5 -9 4 -11 -4 -6 -6 4 -9 12 -6 17 11 16 -7 10 -22
-8 -8 -11 -11 -12 -7 -3 7 13 5 13 -8 2 -13 -10 -17 -10 -21 0 -4 10 -6 10 -6
1 -1 -7 -6 -13 -12 -13 -5 0 -7 4 -4 10 3 6 -1 7 -9 4 -9 -3 -14 -10 -11 -14
6 -10 -15 -8 -32 3 -8 5 -13 3 -13 -5 0 -11 -2 -11 -9 0 -6 11 -11 10 -25 -3
-9 -9 -16 -12 -16 -6 0 6 -5 11 -11 11 -6 0 -8 -7 -5 -16 3 -8 2 -12 -4 -9 -6
3 -10 0 -10 -7 0 -10 -3 -9 -9 2 -6 8 -7 19 -3 25 3 5 -2 4 -11 -4 -19 -15
-23 -26 -5 -15 7 4 8 3 4 -5 -6 -9 -11 -9 -21 -1 -10 8 -15 8 -21 -1 -5 -8 -3
-9 6 -4 9 5 11 4 6 -4 -4 -6 -13 -8 -19 -4 -6 4 -20 8 -29 8 -14 1 -15 -1 -6
-12 9 -11 7 -12 -7 -7 -11 5 -16 4 -12 -3 3 -5 0 -10 -8 -10 -8 0 -12 5 -9 11
3 6 0 4 -8 -5 -7 -9 -20 -14 -28 -11 -13 5 -13 3 0 -14 13 -17 13 -18 0 -8
-16 11 -21 11 -57 -1 -13 -4 -20 -11 -17 -16 5 -9 -9 -13 -33 -10 -6 1 -19 -9
-28 -21 -11 -15 -15 -17 -12 -6 4 10 1 20 -5 24 -6 4 -8 3 -5 -3 8 -12 -25
-41 -42 -35 -7 2 -15 -6 -18 -18 -4 -16 -8 -18 -14 -8 -7 10 -9 9 -9 -4 0 -15
-27 -31 -54 -33 -5 0 -11 -6 -14 -14 -3 -9 0 -11 8 -6 8 5 11 4 7 -3 -4 -5
-17 -8 -29 -4 -16 4 -19 2 -13 -8 6 -10 4 -12 -10 -6 -15 5 -16 4 -5 -9 11
-13 10 -14 -5 -9 -14 6 -16 4 -10 -7 7 -11 5 -11 -10 1 -10 8 -16 10 -12 4 9
-16 -31 -64 -47 -58 -8 3 -17 0 -22 -7 -4 -7 -3 -10 3 -6 5 3 10 0 10 -8 0 -8
-4 -12 -8 -10 -14 9 -38 -7 -32 -21 3 -9 0 -12 -9 -9 -8 3 -21 -2 -29 -12 -13
-16 -12 -17 4 -4 15 12 17 12 11 -3 -6 -15 -24 -21 -49 -16 -5 1 -4 -4 2 -11
7 -7 13 -20 13 -28 0 -12 -2 -12 -13 1 -11 16 -13 16 -27 0 -13 -14 -12 -15 4
-9 16 6 17 5 6 -8 -7 -8 -17 -12 -23 -8 -6 4 -8 0 -4 -10 3 -9 1 -19 -5 -23
-6 -4 -8 -3 -4 4 3 6 1 14 -5 18 -8 4 -9 3 -5 -4 4 -6 -1 -19 -11 -29 -10 -10
-18 -25 -18 -33 0 -8 -9 -15 -19 -15 -11 0 -21 -7 -23 -15 -4 -13 -3 -13 6 0
6 8 11 10 11 4 0 -12 -21 -34 -33 -34 -4 0 -5 5 -1 12 4 7 3 8 -5 4 -9 -6 -9
-11 -1 -21 8 -9 5 -14 -11 -18 -18 -5 -19 -9 -9 -27 11 -20 10 -21 -9 -11 -17
10 -19 8 -16 -10 4 -18 2 -19 -12 -7 -15 12 -15 11 -6 -7 10 -16 7 -22 -14
-36 -20 -14 -22 -17 -8 -23 9 -3 13 -2 10 3 -3 5 -1 12 4 15 5 4 8 -2 6 -11
-1 -10 -9 -17 -18 -15 -11 2 -15 -3 -12 -18 2 -12 -2 -23 -10 -27 -8 -3 -15
-9 -15 -15 0 -5 5 -6 11 -2 8 5 8 1 0 -13 -6 -11 -7 -24 -3 -28 4 -5 1 -5 -6
-1 -7 4 -9 12 -6 18 4 7 2 8 -4 4 -7 -4 -8 -15 -3 -29 9 -22 -9 -64 -21 -51
-3 2 -8 -2 -12 -11 -3 -9 -2 -13 4 -10 17 10 11 -7 -7 -20 -15 -12 -29 -50
-14 -41 4 3 7 -4 7 -14 0 -10 -5 -16 -10 -13 -5 4 -7 -1 -2 -12 6 -16 4 -16
-11 -4 -9 8 -14 9 -10 2 4 -6 1 -14 -5 -16 -10 -4 -10 -6 0 -6 6 -1 12 -6 12
-12 0 -6 -7 -9 -15 -5 -13 4 -13 2 -5 -14 14 -26 13 -33 -4 -27 -10 4 -13 0
-11 -14 3 -15 0 -19 -10 -15 -9 3 -12 0 -9 -9 3 -8 13 -11 22 -9 9 3 7 -1 -6
-8 -18 -11 -20 -16 -10 -27 11 -11 10 -13 -4 -8 -23 8 -29 -2 -16 -26 9 -17 8
-19 -7 -13 -14 5 -15 4 -7 -7 7 -8 7 -18 2 -27 -5 -8 -6 -19 -2 -25 3 -5 -2
-4 -11 4 -15 12 -17 12 -11 -4 5 -11 4 -16 -3 -12 -5 3 -10 -1 -10 -9 0 -10 4
-11 11 -4 5 5 14 10 19 10 5 0 1 -7 -7 -16 -9 -8 -14 -20 -10 -25 3 -5 -2 -12
-11 -15 -13 -6 -14 -8 -3 -15 10 -7 9 -9 -3 -9 -23 0 -43 -26 -33 -42 11 -17
14 -39 6 -34 -4 2 -14 -3 -22 -12 -13 -14 -12 -15 3 -9 9 3 17 2 17 -3 0 -9
-13 -14 -31 -12 -3 1 -6 -6 -6 -13 0 -11 4 -12 14 -4 8 7 13 8 13 1 0 -5 -10
-16 -22 -24 -17 -12 -23 -26 -24 -62 -1 -26 1 -45 4 -42 3 3 12 0 20 -7 13
-10 14 -9 7 2 -6 11 -4 13 9 8 13 -5 19 -1 23 14 4 16 8 17 14 7 7 -10 9 -9 9
5 0 28 1 31 12 45 6 7 18 10 26 7 12 -4 13 -3 2 10 -11 13 -10 15 2 10 8 -3
25 6 38 20 21 22 22 28 10 36 -13 9 -12 10 2 6 9 -3 22 0 28 8 6 8 19 11 27 8
11 -4 14 -2 9 5 -4 7 -2 12 4 12 7 0 10 7 6 18 -4 10 2 7 14 -8 11 -14 18 -18
15 -9 -3 9 1 22 10 29 12 10 15 10 15 -1 0 -12 2 -12 9 0 5 8 18 12 30 8 12
-3 24 0 28 5 4 7 1 8 -8 3 -12 -7 -12 -5 -1 6 11 12 14 12 21 0 6 -9 11 -10
15 -2 4 6 12 11 18 11 7 0 7 -4 -1 -14 -9 -11 -6 -13 18 -10 17 2 33 -1 36 -7
5 -6 12 -6 22 2 12 10 16 10 24 -2 6 -10 9 -10 9 -1 0 6 5 12 11 12 5 0 7 -5
3 -11 -4 -7 1 -7 16 1 20 11 22 10 17 -3 -7 -17 15 -14 42 7 10 7 13 7 9 1 -4
-6 -3 -17 3 -25 7 -12 9 -11 9 5 0 16 2 17 9 5 6 -8 7 -18 5 -22 -3 -4 2 -5
10 -2 9 3 13 10 10 15 -10 16 8 9 23 -8 8 -10 12 -13 9 -7 -3 7 1 15 10 18 12
5 15 2 10 -11 -5 -15 -4 -15 9 1 14 18 15 18 15 2 0 -9 5 -14 10 -11 6 4 8 10
6 14 -3 4 1 8 9 8 8 0 11 -5 8 -11 -4 -5 8 0 26 13 l32 23 6 -21 c3 -11 9 -21
14 -21 5 0 6 6 3 14 -3 8 0 17 7 22 8 4 10 3 5 -4 -4 -7 -2 -12 3 -12 6 0 11
6 11 13 0 8 4 7 10 -3 6 -10 10 -11 10 -2 0 6 7 12 16 12 9 0 12 -5 8 -12 -5
-10 -3 -10 7 0 12 11 12 14 -1 23 -11 8 -9 9 9 4 15 -5 27 -2 32 6 7 11 9 9 9
-5 0 -19 0 -19 13 -1 8 10 19 15 25 11 7 -4 12 -2 12 3 0 6 -5 11 -12 11 -6 0
-9 2 -6 5 9 10 38 -7 31 -18 -3 -6 -1 -7 6 -3 6 4 9 12 6 17 -4 5 -1 9 5 9 6
0 8 5 4 12 -4 7 -3 8 5 4 6 -4 8 -12 5 -18 -4 -6 1 -6 14 1 12 6 24 17 28 24
5 7 0 6 -12 -3 -18 -14 -18 -14 -5 3 9 12 18 14 24 8 6 -6 15 -4 25 5 12 13
17 13 24 2 7 -9 8 -7 5 8 -4 18 0 21 23 19 20 -2 27 2 24 10 -7 17 13 29 22
14 5 -8 3 -9 -6 -4 -9 5 -11 4 -6 -4 4 -6 12 -9 17 -5 5 3 7 9 4 14 -3 5 -1
11 5 15 5 3 10 1 10 -5 0 -6 5 -8 10 -5 6 4 8 11 5 16 -4 5 -1 9 5 9 6 0 8 5
4 12 -4 7 -3 8 5 4 6 -4 9 -12 6 -17 -4 -5 -2 -9 3 -9 5 0 12 9 15 20 3 11 12
20 20 20 7 0 19 10 26 23 6 12 10 15 7 5 -6 -22 4 -30 21 -17 9 9 10 15 3 25
-9 9 -7 12 7 10 10 -2 28 8 41 21 12 13 26 22 31 19 13 -8 34 21 26 35 -5 7 0
7 16 -2 23 -12 23 -11 9 6 -9 11 -10 16 -2 11 6 -4 12 -2 12 3 0 6 5 11 11 11
5 0 7 -6 4 -12 -4 -7 7 2 24 20 19 19 29 38 24 45 -4 7 2 5 12 -3 15 -12 17
-12 10 -1 -6 11 -4 13 8 8 9 -3 19 -1 23 5 4 7 3 8 -4 4 -18 -11 -14 10 5 25
15 12 16 12 8 -1 -4 -8 -5 -12 0 -8 4 4 15 2 23 -5 13 -10 14 -9 7 3 -13 21
-15 41 -4 34 5 -3 9 1 9 8 0 9 3 9 10 -2 8 -13 10 -12 11 5 1 11 1 22 1 25 0
3 9 7 20 7 20 2 20 1 2 -14 -17 -14 -17 -14 6 0 14 9 24 20 23 26 -2 6 2 11 8
11 5 0 8 4 5 9 -4 5 4 7 16 4 17 -3 19 -2 10 5 -11 7 -9 11 8 15 12 3 19 10
15 16 -4 7 0 8 11 4 13 -5 15 -3 9 7 -5 7 -4 11 1 7 16 -9 74 21 74 39 0 12 6
15 24 12 18 -4 23 -1 18 10 -4 11 -1 13 7 7 10 -5 11 -2 6 14 -4 13 -2 21 5
21 6 0 8 -4 5 -10 -3 -5 -3 -10 2 -10 12 0 40 20 29 20 -6 0 -1 6 10 14 13 10
23 11 31 5 8 -7 15 -4 23 11 7 12 18 19 25 16 8 -3 17 -1 20 5 4 5 11 6 17 3
8 -5 9 -1 4 11 -7 18 -6 18 14 0 11 -10 23 -15 27 -12 3 4 2 7 -4 7 -5 0 -10
6 -10 13 0 9 9 12 25 9 17 -3 23 -1 18 7 -4 6 -2 11 3 11 6 0 11 -6 11 -12 0
-9 3 -9 9 1 5 8 18 12 31 8 17 -4 19 -3 9 9 -10 12 -9 13 6 8 13 -5 16 -4 11
4 -5 8 -1 9 16 3 17 -6 26 -4 36 8 7 9 11 11 8 4 -4 -8 4 -10 26 -8 18 2 35 4
38 5 3 1 9 2 13 1 5 -1 6 3 2 9 -5 8 -12 7 -23 -2 -14 -10 -15 -10 -5 2 16 17
66 24 56 7 -5 -9 -3 -9 8 -1 8 5 21 10 29 9 8 0 20 6 27 15 10 13 13 12 22
-10 l10 -25 2 25 c1 17 3 20 6 8 2 -10 9 -18 14 -18 5 0 9 8 9 18 1 15 2 15
10 1 6 -11 18 -15 36 -11 16 3 24 1 21 -4 -3 -6 4 -11 16 -11 14 -2 17 1 9 6
-8 5 -1 8 17 8 22 0 28 -4 21 -12 -13 -16 0 -28 15 -15 9 7 17 5 26 -7 9 -11
10 -14 2 -9 -7 4 -13 2 -13 -3 0 -6 6 -11 14 -11 9 0 12 -7 9 -20 -3 -11 0
-20 6 -20 6 0 11 -11 11 -24 0 -14 5 -28 10 -31 6 -3 10 -12 10 -18 0 -7 -4
-6 -10 3 -8 12 -9 10 -7 -7 2 -12 12 -32 23 -44 10 -12 13 -19 7 -15 -7 4 -13
2 -13 -3 0 -6 5 -11 10 -11 6 0 10 -5 10 -11 0 -6 -7 -8 -17 -4 -15 5 -15 3 2
-13 11 -11 23 -18 26 -16 8 4 5 -29 -4 -43 -4 -6 -2 -15 4 -19 8 -4 9 -3 5 4
-5 8 -1 10 9 5 9 -3 12 -9 7 -12 -11 -7 -12 -41 0 -41 4 0 8 -4 8 -10 0 -5 -8
-7 -17 -4 -11 4 -14 2 -8 -3 10 -8 16 -26 19 -55 1 -10 6 -21 11 -25 4 -5 5
-3 2 3 -4 7 1 18 11 25 15 12 16 12 6 -1 -6 -8 -10 -25 -8 -38 3 -16 0 -21 -8
-16 -6 4 -4 -3 5 -16 11 -16 13 -28 6 -41 -6 -12 -5 -20 2 -24 6 -4 8 -13 5
-20 -3 -8 0 -15 6 -17 6 -2 12 -18 13 -36 1 -27 0 -30 -13 -19 -10 8 -7 -3 7
-31 12 -23 19 -43 16 -43 -3 -1 -9 -2 -14 -3 -5 0 -13 -5 -18 -10 -5 -5 -3 -6
5 -2 6 4 12 2 12 -4 0 -6 6 -8 13 -4 10 6 10 4 0 -7 -15 -16 -17 -59 -3 -59 6
0 10 -5 10 -11 0 -5 -4 -7 -10 -4 -5 3 -10 0 -10 -9 0 -8 6 -17 13 -19 10 -4
10 -6 0 -6 -7 -1 -13 -6 -13 -12 0 -5 6 -7 13 -3 9 5 9 4 0 -6 -8 -9 -9 -19
-2 -32 5 -10 6 -18 1 -18 -4 0 -8 -9 -9 -20 -1 -11 2 -20 7 -20 9 0 7 -26 -3
-36 -4 -4 -2 -14 5 -21 9 -11 9 -16 0 -22 -7 -4 -10 -15 -6 -24 5 -13 2 -16
-12 -11 -18 5 -18 5 -1 -6 17 -11 25 -36 8 -25 -5 3 -13 1 -16 -5 -4 -6 -1 -9
7 -8 10 2 13 -10 11 -47 0 -27 -5 -49 -10 -48 -5 1 -9 -7 -9 -17 0 -10 4 -16
8 -14 4 3 8 -4 8 -16 0 -13 -4 -19 -12 -14 -7 4 -8 3 -4 -5 4 -6 11 -9 16 -6
5 3 11 1 15 -5 3 -5 -1 -10 -9 -10 -8 0 -18 -5 -22 -12 -4 -7 -3 -8 4 -4 7 4
12 3 12 -3 0 -5 -4 -13 -10 -16 -15 -10 -12 -23 8 -28 16 -4 16 -5 -1 -6 -17
-1 -17 -2 -3 -17 18 -17 11 -38 -10 -30 -8 3 -11 0 -7 -9 3 -8 9 -12 14 -9 5
3 6 -2 3 -10 -3 -9 -11 -16 -18 -17 -6 0 -2 -4 9 -9 16 -7 17 -9 3 -9 -9 -1
-20 -6 -24 -13 -4 -6 -3 -8 3 -5 6 4 14 0 17 -9 4 -11 2 -15 -7 -11 -8 3 -14
-1 -14 -9 0 -9 7 -13 16 -9 14 4 13 3 -1 -8 -15 -12 -15 -14 0 -25 9 -7 11
-10 4 -6 -13 6 -41 -21 -42 -40 0 -6 6 -2 13 9 11 14 16 15 22 5 6 -9 4 -11
-5 -5 -10 6 -12 3 -8 -13 3 -12 3 -21 -1 -20 -19 2 -24 -3 -11 -12 9 -6 11
-10 3 -10 -7 0 -10 -7 -6 -17 4 -10 2 -14 -5 -9 -6 3 -14 1 -18 -5 -4 -8 -3
-9 4 -5 7 4 12 2 12 -4 0 -6 5 -8 12 -4 7 4 8 3 4 -5 -4 -6 -13 -8 -19 -4 -7
4 -6 -1 2 -11 12 -14 12 -17 1 -14 -8 2 -15 -6 -16 -18 0 -12 -5 -27 -9 -34
-5 -8 -4 -11 3 -6 6 3 14 1 18 -5 4 -7 3 -9 -3 -6 -6 4 -17 -1 -24 -10 -10
-12 -10 -14 -1 -9 16 10 15 -2 -2 -19 -7 -8 -17 -11 -22 -7 -5 4 -3 0 4 -9 16
-21 0 -115 -19 -104 -5 3 -6 -1 -3 -10 5 -13 9 -13 23 -3 12 9 11 7 -2 -8 -15
-16 -19 -17 -27 -4 -5 8 -10 11 -10 6 0 -5 8 -18 17 -28 13 -15 14 -18 2 -13
-11 4 -15 -1 -16 -17 -1 -58 -4 -68 -19 -68 -14 0 -14 -1 0 -16 22 -21 20 -27
-5 -14 -19 11 -20 10 -8 -11 9 -18 9 -24 0 -27 -9 -3 -9 -8 1 -20 7 -10 8 -14
4 -10 -14 12 -36 -11 -29 -29 5 -12 3 -14 -7 -8 -8 5 -11 4 -6 -3 4 -6 14 -9
24 -6 9 3 6 -2 -8 -10 -14 -8 -20 -15 -14 -16 6 0 11 -7 11 -15 0 -12 -3 -12
-16 -2 -12 10 -13 9 -7 -1 11 -19 15 -62 5 -62 -5 0 -9 5 -9 12 0 6 -3 8 -7 5
-3 -4 2 -17 13 -29 10 -12 13 -18 7 -14 -7 4 -13 4 -14 -1 0 -4 -2 -16 -4 -26
-2 -9 0 -15 4 -13 4 3 13 1 21 -5 13 -7 12 -9 -2 -9 -9 0 -19 -4 -22 -9 -4 -5
4 -7 16 -4 17 3 19 2 9 -5 -11 -8 -9 -11 8 -17 11 -3 21 -13 21 -21 0 -12 4
-13 23 -3 21 12 21 11 7 -6 -14 -17 -13 -18 8 -13 23 6 31 -6 10 -16 -7 -3 -1
-3 14 -1 15 2 33 7 39 11 8 4 9 3 5 -4 -10 -16 36 -16 53 1 9 7 11 7 8 1 -10
-18 20 -25 33 -9 7 8 17 12 23 8 6 -4 8 0 5 8 -4 11 4 14 33 13 31 0 36 2 28
13 -8 9 -7 14 4 19 9 3 20 3 25 0 5 -3 9 1 9 8 0 8 -7 12 -16 9 -9 -2 -6 3 7
13 12 9 22 25 22 36 0 10 5 16 10 13 17 -10 11 6 -8 23 -10 10 -12 13 -5 8 8
-5 13 -4 13 3 0 7 5 9 12 5 7 -5 8 -3 3 7 -14 22 -13 48 3 54 9 3 12 13 9 25
-3 11 -1 20 5 20 5 0 6 4 3 10 -3 5 -1 18 5 29 6 12 6 22 1 26 -6 3 -9 14 -8
25 1 10 5 16 9 14 5 -3 6 -9 3 -14 -3 -5 0 -12 6 -16 8 -4 9 -3 5 4 -4 7 -1
12 6 12 9 0 9 3 2 8 -6 4 -13 15 -17 24 -4 12 -2 15 9 11 7 -3 14 0 14 6 0 6
-4 11 -10 11 -5 0 -10 5 -10 11 0 5 6 7 13 3 7 -5 6 0 -3 11 -13 17 -13 18 0
13 12 -4 15 3 13 34 -1 33 2 38 15 34 15 -5 15 -4 2 7 -8 6 -16 18 -18 26 -3
12 -1 12 15 0 17 -13 17 -13 0 14 l-18 28 23 -12 c21 -11 22 -11 9 4 -11 14
-11 17 0 17 11 0 11 3 -1 11 -12 8 -12 12 -2 16 10 4 10 8 0 21 -8 10 -9 13
-1 9 6 -4 14 -3 18 3 3 5 -1 10 -10 10 -9 0 -14 4 -10 10 3 5 13 6 23 3 14 -5
14 -3 -2 9 -15 12 -16 17 -6 23 9 6 11 4 5 -6 -5 -8 -4 -11 0 -6 5 4 10 17 12
29 3 18 1 19 -14 7 -16 -12 -17 -12 -6 2 7 9 9 20 5 24 -4 5 -1 5 7 0 11 -6
13 -3 9 13 -4 16 -2 19 11 15 10 -3 12 -2 5 4 -15 12 -27 46 -12 37 8 -5 9 -2
5 9 -4 10 -1 17 6 17 8 0 7 4 -3 10 -12 7 -12 12 -2 22 14 14 16 32 2 23 -5
-3 -10 -1 -10 4 0 6 5 11 12 11 6 0 3 10 -8 23 -10 12 -15 19 -10 15 5 -4 16
-2 25 5 14 11 14 10 2 -5 -9 -12 -10 -18 -2 -18 6 0 12 5 12 10 1 6 2 16 3 23
1 6 0 17 -3 22 -9 17 -8 95 1 101 12 7 10 24 -3 24 -5 0 -8 -4 -4 -9 3 -5 1
-12 -4 -15 -16 -11 -22 11 -6 24 15 12 11 35 -5 25 -10 -6 -7 21 4 32 4 4 6 2
4 -6 -2 -7 4 -16 12 -18 9 -3 11 -1 5 4 -12 9 -13 28 -2 39 4 4 7 12 7 18 0 6
-5 3 -11 -6 -5 -10 -15 -18 -22 -18 -7 0 -6 4 3 10 12 8 13 12 2 19 -11 7 -10
9 3 15 9 3 13 10 10 16 -3 5 -1 10 5 10 6 0 8 5 4 11 -9 14 -25 -11 -17 -26 4
-5 2 -6 -3 -2 -4 4 -9 21 -9 37 -1 23 2 27 12 18 10 -8 12 -7 7 6 -3 9 -11 16
-18 16 -6 0 -4 5 4 10 10 6 11 10 3 10 -7 0 -13 5 -13 11 0 6 7 9 14 6 10 -4
13 -1 9 9 -3 7 -9 14 -14 14 -5 0 -9 5 -9 11 0 5 4 8 8 5 5 -3 9 1 9 9 0 8 -4
12 -9 9 -13 -8 -10 10 5 25 10 11 10 13 0 7 -7 -4 -13 -4 -14 1 0 4 -2 18 -3
30 -2 13 0 23 4 23 7 0 3 70 -4 77 -3 3 0 17 5 32 8 23 8 24 -5 8 -18 -23 -29
-22 -16 2 13 26 13 34 -2 25 -7 -4 -10 -4 -6 1 4 4 2 15 -5 24 -10 14 -10 14
4 3 14 -10 16 -8 15 17 -1 15 -6 27 -11 24 -6 -2 -11 5 -11 16 0 15 3 17 13 9
10 -8 12 -7 7 6 -3 9 -10 16 -16 16 -5 0 -6 6 -1 13 12 19 12 36 1 44 -7 3 -8
1 -4 -5 5 -8 1 -10 -10 -5 -14 5 -13 8 7 19 18 10 20 13 7 14 -11 0 -15 5 -12
15 4 8 1 15 -6 15 -6 0 -8 5 -5 10 4 6 12 7 18 3 7 -4 6 0 -2 10 -7 9 -17 15
-21 12 -5 -3 -6 9 -3 26 3 24 2 29 -9 23 -10 -6 -10 -4 1 9 9 12 10 17 2 17
-7 0 -9 5 -6 10 3 6 2 10 -3 10 -14 0 -22 39 -10 46 6 4 4 11 -7 17 -13 7 -14
11 -4 17 10 7 9 13 -3 32 -8 12 -15 27 -14 31 1 5 -7 13 -16 18 -10 5 -15 16
-12 24 4 8 11 12 18 8 6 -3 3 3 -8 15 -10 12 -23 19 -29 15 -6 -3 -7 -1 -3 5
4 6 -1 23 -10 37 -16 24 -16 25 1 18 13 -4 16 -3 11 5 -4 7 -15 12 -24 12 -13
0 -14 2 -4 9 11 7 11 9 -1 14 -10 4 -13 13 -10 26 3 13 -2 28 -14 38 -10 10
-12 14 -4 8 12 -8 12 -7 3 11 -6 12 -8 25 -4 30 4 5 -1 2 -11 -5 -15 -12 -17
-12 -11 4 5 13 4 16 -4 11 -7 -4 -12 -3 -12 3 0 5 5 13 12 17 8 5 6 10 -8 14
-10 4 -19 13 -19 21 -1 8 -5 13 -11 12 -5 -1 -10 7 -10 17 0 10 4 16 8 14 4
-3 8 0 8 5 0 6 -5 11 -11 11 -8 0 -8 4 1 15 6 8 8 20 4 26 -5 8 -2 10 8 6 12
-4 14 -1 11 14 -4 13 0 19 11 19 10 0 14 5 11 10 -4 6 -11 8 -16 5 -15 -10
-10 2 8 16 15 12 16 12 8 -1 -5 -9 0 -8 13 4 27 23 27 27 5 20 -16 -5 -16 -4
1 10 10 8 23 13 28 9 6 -3 5 4 -1 15 -10 18 -9 20 11 17 16 -4 19 -2 10 7 -7
7 -12 17 -12 22 0 6 4 5 9 -3 5 -7 14 -10 20 -7 6 4 8 12 5 18 -5 7 -1 9 9 5
11 -4 21 1 28 15 9 17 13 18 20 7 6 -10 9 -11 10 -1 1 6 2 16 3 22 0 5 7 15
14 22 7 7 13 9 12 3 -5 -25 1 -26 19 -3 16 20 27 24 58 22 25 -2 33 0 24 5 -8
5 -21 7 -30 4 -12 -3 -12 -2 2 7 9 6 22 8 27 5 6 -3 10 -1 10 5 0 6 5 8 12 4
8 -5 9 -2 5 9 -3 9 -2 19 4 22 5 4 9 3 8 -2 -5 -29 3 -34 21 -13 11 13 20 20
20 16 0 -4 7 0 16 8 8 9 27 16 40 16 18 0 23 4 18 13 -6 9 -4 9 8 -1 14 -11
17 -10 23 9 6 17 9 19 16 8 7 -11 9 -9 10 6 l0 20 9 -20 c7 -17 9 -17 9 -3 1
11 6 15 16 12 8 -4 15 -1 15 5 0 6 5 11 11 11 5 0 8 -4 5 -8 -3 -5 1 -9 8 -9
8 0 12 5 10 12 -3 6 5 11 16 12 13 1 18 -3 14 -10 -3 -7 1 -4 9 5 8 10 17 15
20 11 4 -3 7 -1 7 7 0 10 3 10 15 0 13 -11 14 -10 9 4 -5 12 -2 15 10 10 9 -4
16 -3 14 2 -2 5 1 9 7 9 5 0 9 -3 8 -7 -6 -18 15 -6 26 15 6 12 9 14 7 5 -6
-22 31 -16 51 9 8 10 12 13 9 8 -2 -6 4 -11 14 -11 15 0 17 3 7 15 -10 12 -9
13 10 3 15 -8 24 -9 28 -2 5 8 11 8 20 0 9 -7 16 -6 26 7 8 9 9 14 2 10 -6 -4
-14 -3 -17 2 -7 10 19 9 30 -1 9 -9 35 2 29 12 -3 5 3 9 12 9 42 1 51 5 46 18
-4 11 0 11 22 3 36 -14 42 -13 19 4 -18 14 -18 14 8 12 16 -2 26 2 25 8 -1 6
6 10 16 10 9 -1 17 2 17 7 0 5 7 9 16 9 8 0 12 4 9 10 -4 6 1 7 11 3 13 -5 15
-3 9 8 -4 8 -5 11 0 7 10 -9 47 10 41 21 -3 5 6 7 19 5 16 -1 30 5 39 18 10
14 15 16 20 6 3 -7 4 -2 3 11 -1 14 4 26 13 28 12 4 12 3 1 -5 -8 -6 -9 -12
-3 -16 6 -3 13 3 17 14 3 11 13 20 20 20 8 0 17 5 21 12 5 7 3 8 -6 3 -9 -6
-11 -4 -5 4 5 9 10 10 18 2 6 -6 16 -11 21 -11 6 0 4 5 -4 10 -11 7 -11 10 -2
10 7 0 10 5 7 10 -3 6 -1 10 5 10 6 0 8 5 4 12 -4 7 -3 8 5 4 6 -4 9 -12 6
-17 -3 -5 1 -6 9 -3 9 3 14 9 11 14 -2 4 3 16 11 26 15 19 15 19 10 -1 -6 -19
-5 -19 7 -3 8 10 18 14 23 10 4 -4 2 2 -6 12 -10 13 -10 17 -2 12 6 -4 12 -2
12 3 0 6 7 11 16 11 8 0 12 5 9 10 -3 6 0 10 9 10 8 0 16 -6 19 -12 3 -7 4 -3
4 8 -1 15 -6 20 -17 17 -8 -2 -6 1 5 8 11 7 24 17 28 23 5 6 5 0 1 -14 -3 -14
-5 -23 -3 -20 2 3 13 16 24 29 11 14 14 21 6 16 -10 -5 -12 -4 -7 3 4 7 14 12
22 12 8 0 12 5 9 10 -6 9 8 15 29 11 5 -1 3 5 -4 14 -11 13 -10 14 5 9 14 -6
16 -4 10 6 -6 10 -4 12 10 6 15 -5 16 -4 5 9 -11 13 -9 15 11 15 19 0 21 2 9
10 -13 8 -13 10 1 10 26 0 41 24 26 40 -8 8 -8 11 -1 7 13 -8 27 20 18 34 -3
5 -2 9 3 8 23 -4 31 3 28 22 -4 18 -2 19 12 7 15 -12 15 -11 3 11 -11 21 -10
23 3 18 12 -4 14 -2 10 10 -4 10 -2 14 5 9 7 -4 9 4 7 24 -3 18 0 28 5 25 6
-4 10 2 10 12 0 11 5 24 12 31 7 7 8 12 3 12 -5 0 0 7 11 16 18 14 18 15 -6
10 -14 -3 -19 -3 -12 0 6 3 10 9 7 14 -3 4 5 6 17 3 19 -4 20 -3 8 7 -11 8
-12 13 -3 16 8 4 10 16 6 36 -5 26 -3 30 10 25 11 -4 14 -2 10 8 -3 8 -9 13
-13 10 -11 -7 -6 22 5 32 4 4 5 2 1 -4 -4 -7 -3 -13 3 -13 5 0 8 14 6 31 -3
25 -1 30 13 25 15 -5 15 -5 0 8 -18 13 -25 32 -9 22 5 -3 11 1 14 9 4 10 1 12
-11 8 -14 -5 -15 -3 -4 8 6 7 12 21 12 30 0 10 -6 20 -12 22 -7 3 -2 6 12 6
14 1 20 5 14 9 -6 4 -14 16 -17 26 -7 17 -6 17 9 5 16 -13 16 -12 5 8 -10 19
-8 26 9 43 22 22 27 35 8 24 -7 -5 -8 -3 -4 5 5 7 14 10 22 7 8 -3 11 0 8 8
-3 8 0 17 7 22 8 5 10 3 4 -6 -6 -9 -4 -11 4 -5 7 4 11 15 8 24 -3 11 2 17 14
17 10 0 15 -4 13 -8 -3 -4 2 -5 10 -2 9 3 14 11 13 16 -1 6 4 13 12 16 8 2 11
0 7 -6 -3 -6 -1 -14 5 -18 7 -4 9 -3 5 4 -7 12 33 44 45 36 4 -2 11 1 15 7 5
8 3 9 -6 4 -10 -6 -12 -4 -6 10 5 15 4 16 -9 5 -15 -12 -20 -4 -16 23 2 14
-17 7 -23 -9 -4 -10 -2 -13 6 -8 7 4 8 3 4 -4 -11 -19 -26 -14 -26 9 0 11 -5
17 -10 14 -6 -4 -8 -12 -4 -18 3 -7 -2 -3 -10 7 -12 15 -16 16 -16 5 0 -12 -2
-12 -10 1 -6 10 -10 11 -10 3 0 -7 -5 -13 -11 -13 -5 0 -7 5 -4 10 3 6 1 10
-4 10 -6 0 -11 -6 -11 -12 -1 -7 -7 -2 -15 12 -11 19 -14 21 -15 8 0 -14 -4
-16 -25 -8 -14 5 -32 7 -40 4 -8 -4 -15 -1 -15 6 0 6 5 8 12 4 7 -4 8 -3 4 5
-4 6 -12 9 -17 6 -5 -4 -9 0 -9 7 0 8 -3 9 -8 3 -11 -16 -44 -18 -53 -3 -7 11
-9 11 -9 -1 0 -10 -3 -11 -14 -2 -10 9 -16 9 -21 1 -5 -8 -11 -7 -23 2 -12 10
-14 10 -8 1 4 -7 2 -13 -3 -13 -6 0 -11 6 -11 13 0 9 -2 9 -8 0 -5 -8 -13 -9
-22 -3 -8 5 -21 5 -32 -1 -13 -7 -18 -6 -19 3 0 7 -4 4 -9 -7 -6 -14 -9 -15
-9 -5 -1 9 -10 16 -21 17 -11 1 -18 -2 -16 -6 3 -4 -1 -8 -9 -8 -8 0 -15 3
-15 7 0 3 -9 6 -20 7 -13 1 -18 -2 -13 -10 4 -7 -1 -6 -10 2 -16 12 -17 12
-11 -5 5 -18 5 -18 -6 -1 -7 12 -16 15 -23 9 -14 -10 -27 -10 -44 1 -8 5 -13
3 -13 -5 0 -9 -3 -9 -10 2 -9 13 -10 13 -10 0 0 -9 -3 -11 -8 -5 -8 13 -71 13
-91 1 -10 -6 -12 -5 -7 2 4 7 3 12 -3 12 -5 0 -12 -6 -14 -12 -4 -10 -8 -9
-16 2 -8 12 -11 12 -11 1 0 -11 -3 -11 -17 0 -13 11 -15 11 -9 1z m-24 -27 c0
-2 -9 -3 -19 -2 -11 0 -18 5 -15 9 4 6 34 0 34 -7z m670 9 c0 -8 -19 -13 -24
-6 -3 5 1 9 9 9 8 0 15 -2 15 -3z m-1360 -233 c0 -5 -10 -11 -22 -14 -22 -6
-22 -6 -4 8 23 17 26 18 26 6z m-470 -525 c0 -2 -7 -7 -16 -10 -8 -3 -12 -2
-9 4 6 10 25 14 25 6z m1720 -110 c0 -3 -4 -8 -10 -11 -5 -3 -10 -1 -10 4 0 6
5 11 10 11 6 0 10 -2 10 -4z m-458 -408 c-7 -7 -12 -8 -12 -2 0 6 3 14 7 17 3
4 9 5 12 2 2 -3 -1 -11 -7 -17z m-2502 -98 c0 -5 -5 -10 -11 -10 -5 0 -7 5 -4
10 3 6 8 10 11 10 2 0 4 -4 4 -10z m541 -172 c11 -21 11 -22 -4 -9 -10 7 -17
17 -17 22 0 15 9 10 21 -13z m136 -463 c0 -8 -4 -12 -9 -9 -5 3 -6 10 -3 15 9
13 12 11 12 -6z m438 -185 c3 -6 -1 -7 -9 -4 -18 7 -21 14 -7 14 6 0 13 -4 16
-10z m-925 -40 c-8 -5 -17 -7 -19 -4 -3 3 1 9 9 14 8 5 17 7 19 4 3 -3 -1 -9
-9 -14z m-1665 -170 c-3 -5 -12 -10 -18 -10 -7 0 -6 4 3 10 19 12 23 12 15 0z
m2869 -46 c5 -14 4 -15 -9 -4 -17 14 -19 20 -6 20 5 0 12 -7 15 -16z m-1524
-29 c0 -2 -6 -8 -13 -14 -10 -8 -14 -7 -14 2 0 8 6 14 14 14 7 0 13 -1 13 -2z
m-1119 -372 c13 -16 12 -17 -3 -4 -10 7 -18 15 -18 17 0 8 8 3 21 -13z m-397
-8 c-6 -16 -24 -21 -24 -7 0 11 11 22 21 22 5 0 6 -7 3 -15z m96 -88 c0 -2 -9
-12 -20 -22 -24 -21 -27 -14 -4 9 15 15 24 20 24 13z m-151 -63 c-10 -13 -10
-17 2 -25 9 -5 10 -9 2 -9 -6 0 -14 4 -17 9 -8 12 4 41 16 41 6 0 5 -7 -3 -16z
m6 -62 c-3 -3 -11 0 -18 7 -9 10 -8 11 6 5 10 -3 15 -9 12 -12z m2912 -217 c0
-8 -4 -12 -9 -9 -4 3 -8 9 -8 15 0 5 4 9 8 9 5 0 9 -7 9 -15z m313 -279 c0
-11 -19 -15 -25 -6 -3 5 1 10 9 10 9 0 16 -2 16 -4z m-413 -351 c0 -8 -4 -12
-9 -9 -5 3 -6 10 -3 15 9 13 12 11 12 -6z m-97 -365 c0 -5 -2 -10 -4 -10 -3 0
-8 5 -11 10 -3 6 -1 10 4 10 6 0 11 -4 11 -10z"/>
<path d="M4925 4481 c-3 -5 -2 -12 3 -15 5 -3 9 1 9 9 0 17 -3 19 -12 6z"/>
<path d="M3195 4280 c-3 -5 -1 -10 4 -10 6 0 11 5 11 10 0 6 -2 10 -4 10 -3 0
-8 -4 -11 -10z"/>
<path d="M2915 3760 c-3 -5 -2 -10 4 -10 5 0 13 5 16 10 3 6 2 10 -4 10 -5 0
-13 -4 -16 -10z"/>
<path d="M2904 3663 c4 -7 2 -13 -4 -13 -6 0 -8 -4 -5 -10 3 -5 10 -10 15 -10
10 0 7 27 -5 37 -4 4 -5 2 -1 -4z"/>
<path d="M2175 3241 c-3 -5 -2 -12 3 -15 5 -3 9 1 9 9 0 17 -3 19 -12 6z"/>
<path d="M1055 3200 c3 -5 8 -10 11 -10 2 0 4 5 4 10 0 6 -5 10 -11 10 -5 0
-7 -4 -4 -10z"/>
<path d="M2747 3016 c-4 -10 -1 -13 8 -9 8 3 12 9 9 14 -7 12 -11 11 -17 -5z"/>
<path d="M3240 3005 c-7 -9 -8 -15 -2 -15 5 0 12 7 16 15 3 8 4 15 2 15 -2 0
-9 -7 -16 -15z"/>
<path d="M736 2988 c3 -5 10 -6 15 -3 13 9 11 12 -6 12 -8 0 -12 -4 -9 -9z"/>
<path d="M303 2391 c0 -11 5 -18 9 -15 4 3 5 11 1 19 -7 21 -12 19 -10 -4z"/>
<path d="M2953 2045 c0 -8 4 -15 9 -15 4 0 8 4 8 9 0 6 -4 12 -8 15 -5 3 -9
-1 -9 -9z"/>
<path d="M2950 1956 c0 -2 7 -7 16 -10 8 -3 12 -2 9 4 -6 10 -25 14 -25 6z"/>
<path d="M860 1825 c-8 -9 -8 -15 -2 -15 12 0 26 19 19 26 -2 2 -10 -2 -17
-11z"/>
<path d="M145 1681 c-3 -5 -2 -12 3 -15 5 -3 9 1 9 9 0 17 -3 19 -12 6z"/>
<path d="M2957 1629 c7 -7 15 -10 18 -7 3 3 -2 9 -12 12 -14 6 -15 5 -6 -5z"/>
</g>
</svg>
